<?xml version="1.0" encoding="iso-8859-1"?>
<!-- Generator: Adobe Illustrator 17.1.0, SVG Export Plug-In . SVG Version: 6.00 Build 0)  -->
<!DOCTYPE svg PUBLIC "-//W3C//DTD SVG 1.1//EN" "http://www.w3.org/Graphics/SVG/1.1/DTD/svg11.dtd">
<svg version="1.1" id="Capa_1" xmlns="http://www.w3.org/2000/svg" xmlns:xlink="http://www.w3.org/1999/xlink" x="0px" y="0px"
	 viewBox="0 0 512 512" style="enable-background:new 0 0 512 512;" xml:space="preserve">
<g>
	<path d="M511.93,222.944l-13.141-98.555C496.632,108.205,482.692,96,466.364,96H39.988C17.938,96,0,113.938,0,135.988v232.011
		C0,381.233,10.767,392,24.001,392H83.35c6.185,14.112,20.281,24,36.65,24s30.465-9.888,36.65-24h254.7
		c6.185,14.112,20.281,24,36.65,24s30.465-9.888,36.65-24h3.349C501.233,392,512,381.233,512,367.999V224.002
		C512,223.648,511.977,223.295,511.93,222.944z M496,296h-16v-56h16V296z M120,400c-13.233,0-24-10.767-24-24s10.767-24,24-24
		s24,10.767,24,24S133.233,400,120,400z M48,296v-56h64v56H48z M128,240h72v56h-72V240z M216,304.019
		c0-0.007,0.001-0.013,0.001-0.019S216,303.987,216,303.981V240h48v136h-48V304.019z M328,240v63.971
		c0,0.01-0.001,0.019-0.001,0.029s0.001,0.019,0.001,0.029V376h-48V240H328z M432,240v56h-88v-56H432z M448,400
		c-13.233,0-24-10.767-24-24s10.767-24,24-24s24,10.767,24,24S461.233,400,448,400z M496,367.999c0,4.412-3.589,8-8,8.001
		c0-22.056-17.944-40-40-40s-40,17.944-40,40h-64v-24h56c4.418,0,8-3.582,8-8s-3.582-8-8-8h-56v-24h88c8.822,0,16-7.178,16-16v-56
		c0-8.822-7.178-16-16-16H48c-8.822,0-16,7.178-16,16v56c0,8.822,7.178,16,16,16h152v24h-32c-4.418,0-8,3.582-8,8s3.582,8,8,8h32v24
		h-40c0-22.056-17.944-40-40-40s-40,17.944-40,40H24.001c-4.412,0-8.001-3.589-8.001-8.001V352h56c4.418,0,8-3.582,8-8s-3.582-8-8-8
		H16V135.988C16,122.761,26.761,112,39.988,112h426.375c8.342,0,15.463,6.235,16.566,14.504L495.929,224H480
		c-8.822,0-16,7.178-16,16v56c0,8.822,7.178,16,16,16h16v24c-4.418,0-8,3.582-8,8s3.582,8,8,8V367.999z"/>
	<path d="M476.443,178.551c2.792-3.172,4.033-7.266,3.497-11.529l-3.83-31.973c-0.008-0.063-0.016-0.127-0.025-0.189
		c-1.281-8.888-7.678-14.859-15.918-14.859H48c-8.822,0-16,7.178-16,16v32c0,8.822,7.178,16,16,16h416
		C468.861,184,473.396,182.014,476.443,178.551z M216,136l72,0V168h-72V136z M200,168h-72v-32l72,0V168z M304,136.001l72,0V168h-72
		V136.001z M48,136l64,0v32H48V136z M392,168v-31.999l67.919,0c0.103,0.201,0.236,0.553,0.318,1.067L463.943,168H392z"/>
	<path d="M120.02,368h-0.01c-4.418,0-7.995,3.582-7.995,8s3.586,8,8.005,8s8-3.582,8-8S124.438,368,120.02,368z"/>
	<path d="M448.02,368h-0.01c-4.418,0-7.995,3.582-7.995,8s3.586,8,8.005,8s8-3.582,8-8S452.438,368,448.02,368z"/>
</g>
<g>
</g>
<g>
</g>
<g>
</g>
<g>
</g>
<g>
</g>
<g>
</g>
<g>
</g>
<g>
</g>
<g>
</g>
<g>
</g>
<g>
</g>
<g>
</g>
<g>
</g>
<g>
</g>
<g>
</g>
</svg>
